<svg width="67" height="67" viewBox="0 0 67 67" fill="none" xmlns="http://www.w3.org/2000/svg">
<path d="M58.6948 30.8479V53.0417C58.6948 54.5771 58.1481 55.8915 57.0547 56.9849C55.9613 58.0783 54.6469 58.625 53.1115 58.625H14.0281C12.4927 58.625 11.1783 58.0783 10.0849 56.9849C8.9915 55.8915 8.4448 54.5771 8.4448 53.0417V30.8479C7.37466 29.8708 6.54879 28.6146 5.96719 27.0792C5.3856 25.5438 5.37397 23.8688 5.9323 22.0542L8.86355 12.5625C9.23577 11.3528 9.89879 10.3524 10.8526 9.56146C11.8064 8.77049 12.9115 8.375 14.1677 8.375H52.9719C54.2281 8.375 55.3215 8.75885 56.2521 9.52656C57.1826 10.2943 57.8573 11.3063 58.2761 12.5625L61.2073 22.0542C61.7656 23.8688 61.754 25.5205 61.1724 27.0094C60.5908 28.4983 59.7649 29.7778 58.6948 30.8479ZM39.7115 27.9167C40.9677 27.9167 41.9215 27.4863 42.5729 26.6255C43.2243 25.7648 43.4802 24.7993 43.3406 23.7292L41.8052 13.9583H36.3615V24.2875C36.3615 25.2646 36.6872 26.1137 37.3386 26.8349C37.9899 27.5561 38.7809 27.9167 39.7115 27.9167ZM27.149 27.9167C28.2191 27.9167 29.0915 27.5561 29.7662 26.8349C30.4408 26.1137 30.7781 25.2646 30.7781 24.2875V13.9583H25.3344L23.799 23.7292C23.6129 24.8458 23.8571 25.8229 24.5318 26.6604C25.2064 27.4979 26.0788 27.9167 27.149 27.9167ZM14.726 27.9167C15.5635 27.9167 16.2964 27.6142 16.9245 27.0094C17.5526 26.4045 17.9365 25.6368 18.076 24.7062L19.6115 13.9583H14.1677L11.376 23.3104C11.0969 24.241 11.2481 25.2413 11.8297 26.3115C12.4113 27.3816 13.3767 27.9167 14.726 27.9167ZM52.4136 27.9167C53.7629 27.9167 54.7399 27.3816 55.3448 26.3115C55.9497 25.2413 56.0892 24.241 55.7635 23.3104L52.8323 13.9583H47.5281L49.0635 24.7062C49.2031 25.6368 49.587 26.4045 50.2151 27.0094C50.8432 27.6142 51.576 27.9167 52.4136 27.9167ZM14.0281 53.0417H53.1115V33.3604C52.8788 33.4535 52.7276 33.5 52.6578 33.5H52.4136C51.1573 33.5 50.0523 33.2906 49.0984 32.8719C48.1446 32.4531 47.2024 31.7785 46.2719 30.8479C45.4344 31.6854 44.4806 32.3368 43.4104 32.8021C42.3403 33.2674 41.2004 33.5 39.9906 33.5C38.7344 33.5 37.5596 33.2674 36.4662 32.8021C35.3728 32.3368 34.4073 31.6854 33.5698 30.8479C32.7788 31.6854 31.8599 32.3368 30.813 32.8021C29.7662 33.2674 28.6379 33.5 27.4281 33.5C26.0788 33.5 24.8575 33.2674 23.7641 32.8021C22.6707 32.3368 21.7052 31.6854 20.8677 30.8479C19.8906 31.825 18.9252 32.5113 17.9714 32.9068C17.0175 33.3023 15.9358 33.5 14.726 33.5H14.412C14.2957 33.5 14.1677 33.4535 14.0281 33.3604V53.0417Z" fill="white"/>
</svg>
