<svg width="35" height="34" viewBox="0 0 35 34" fill="none" xmlns="http://www.w3.org/2000/svg">
<path d="M34.5833 33.6666L27.75 26.9999H10.6666C9.72704 26.9999 8.9227 26.6735 8.25361 26.0208C7.58451 25.368 7.24996 24.5833 7.24996 23.6666V21.9999H26.0416C26.9812 21.9999 27.7855 21.6735 28.4546 21.0208C29.1237 20.368 29.4583 19.5833 29.4583 18.6666V6.99992H31.1666C32.1062 6.99992 32.9105 7.32631 33.5796 7.97909C34.2487 8.63186 34.5833 9.41659 34.5833 10.3333V33.6666ZM3.83329 17.2916L5.84058 15.3333H22.625V3.66659H3.83329V17.2916ZM0.416626 25.3333V3.66659C0.416626 2.74992 0.751175 1.9652 1.42027 1.31242C2.08937 0.659641 2.89371 0.333252 3.83329 0.333252H22.625C23.5645 0.333252 24.3689 0.659641 25.038 1.31242C25.7071 1.9652 26.0416 2.74992 26.0416 3.66659V15.3333C26.0416 16.2499 25.7071 17.0346 25.038 17.6874C24.3689 18.3402 23.5645 18.6666 22.625 18.6666H7.24996L0.416626 25.3333Z" fill="white"/>
</svg>
